<svg width="25" height="24" viewBox="0 0 25 24" fill="none" xmlns="http://www.w3.org/2000/svg">
<path fill-rule="evenodd" clip-rule="evenodd" d="M12.5 1.25C12.9142 1.25 13.25 1.58579 13.25 2V3.28169C17.4842 3.64113 20.8589 7.01581 21.2183 11.25H22.5C22.9142 11.25 23.25 11.5858 23.25 12C23.25 12.4142 22.9142 12.75 22.5 12.75H21.2183C20.8589 16.9842 17.4842 20.3589 13.25 20.7183V22C13.25 22.4142 12.9142 22.75 12.5 22.75C12.0858 22.75 11.75 22.4142 11.75 22V20.7183C7.51581 20.3589 4.14113 16.9842 3.78169 12.75H2.5C2.08579 12.75 1.75 12.4142 1.75 12C1.75 11.5858 2.08579 11.25 2.5 11.25H3.78169C4.14113 7.01581 7.51581 3.64113 11.75 3.28169V2C11.75 1.58579 12.0858 1.25 12.5 1.25ZM12.5 4.75C8.49594 4.75 5.25 7.99594 5.25 12C5.25 16.0041 8.49594 19.25 12.5 19.25C16.5041 19.25 19.75 16.0041 19.75 12C19.75 7.99594 16.5041 4.75 12.5 4.75ZM12.5 9.75C11.2574 9.75 10.25 10.7574 10.25 12C10.25 13.2426 11.2574 14.25 12.5 14.25C13.7426 14.25 14.75 13.2426 14.75 12C14.75 10.7574 13.7426 9.75 12.5 9.75ZM8.75 12C8.75 9.92893 10.4289 8.25 12.5 8.25C14.5711 8.25 16.25 9.92893 16.25 12C16.25 14.0711 14.5711 15.75 12.5 15.75C10.4289 15.75 8.75 14.0711 8.75 12Z" fill="#1F2237"/>
</svg>
