<svg width="25" height="24" viewBox="0 0 25 24" fill="none" xmlns="http://www.w3.org/2000/svg">
<path fill-rule="evenodd" clip-rule="evenodd" d="M1.75 2C1.75 1.58579 2.08579 1.25 2.5 1.25H22.5C22.9142 1.25 23.25 1.58579 23.25 2C23.25 2.41421 22.9142 2.75 22.5 2.75H21.25V10.5579C21.25 12.0408 21.25 13.2337 21.117 14.1715C20.9786 15.1472 20.6833 15.9558 20.0118 16.5924C19.3458 17.2237 18.5095 17.4963 17.4997 17.625C16.5187 17.75 15.2672 17.75 13.696 17.75H13.25V20.5365L14.8354 21.3292C15.2059 21.5144 15.3561 21.9649 15.1708 22.3354C14.9856 22.7059 14.5351 22.8561 14.1646 22.6708L12.5 21.8385L10.8354 22.6708C10.4649 22.8561 10.0144 22.7059 9.82918 22.3354C9.64394 21.9649 9.79411 21.5144 10.1646 21.3292L11.75 20.5365V17.75H11.304C9.73285 17.75 8.48134 17.75 7.50025 17.625C6.49049 17.4963 5.65416 17.2237 4.98824 16.5924C4.31666 15.9558 4.02135 15.1472 3.88296 14.1715C3.74996 13.2337 3.74998 12.0408 3.75 10.5579L3.75 2.75H2.5C2.08579 2.75 1.75 2.41421 1.75 2ZM5.25 2.75V10.5C5.25 12.0544 5.25177 13.1407 5.36809 13.9608C5.48075 14.7551 5.68755 15.1885 6.02017 15.5038C6.35845 15.8244 6.83235 16.0277 7.68988 16.137C8.56506 16.2486 9.72077 16.25 11.3571 16.25H13.6429C15.2792 16.25 16.4349 16.2486 17.3101 16.137C18.1677 16.0277 18.6415 15.8244 18.9798 15.5038C19.3125 15.1885 19.5193 14.7551 19.6319 13.9608C19.7482 13.1407 19.75 12.0544 19.75 10.5V2.75H5.25ZM16.0303 7.96967C16.3232 8.26256 16.3232 8.73744 16.0303 9.03033L14.7374 10.3232C14.7294 10.3313 14.7212 10.3394 14.7131 10.3476C14.5681 10.4927 14.4113 10.6496 14.2612 10.7642C14.0852 10.8984 13.8335 11.0429 13.5 11.0429C13.1665 11.0429 12.9148 10.8984 12.7388 10.7642C12.5887 10.6496 12.4319 10.4927 12.2869 10.3476C12.2788 10.3394 12.2706 10.3313 12.2626 10.3232L11.6768 9.73744C11.6067 9.66738 11.5499 9.61061 11.5 9.56229C11.4501 9.61061 11.3933 9.66738 11.3232 9.73744L10.0303 11.0303C9.73744 11.3232 9.26256 11.3232 8.96967 11.0303C8.67678 10.7374 8.67678 10.2626 8.96967 9.96967L10.2626 8.67678C10.2706 8.6687 10.2788 8.66057 10.2869 8.65241C10.4319 8.50732 10.5887 8.35042 10.7388 8.23584C10.9148 8.10161 11.1665 7.95711 11.5 7.95711C11.8335 7.95711 12.0852 8.10161 12.2612 8.23584C12.4113 8.35043 12.5681 8.50732 12.7131 8.65242C12.7212 8.66058 12.7294 8.6687 12.7374 8.67678L13.3232 9.26256C13.3933 9.33262 13.4501 9.38939 13.5 9.43771C13.5499 9.38939 13.6067 9.33262 13.6768 9.26256L14.9697 7.96967C15.2626 7.67678 15.7374 7.67678 16.0303 7.96967Z" fill="#1F2237"/>
</svg>
