<svg width="25" height="24" viewBox="0 0 25 24" fill="none" xmlns="http://www.w3.org/2000/svg">
<path fill-rule="evenodd" clip-rule="evenodd" d="M11.75 2C11.75 1.58579 12.0858 1.25 12.5 1.25C18.4371 1.25 23.25 6.06294 23.25 12C23.25 17.9371 18.4371 22.75 12.5 22.75C6.56294 22.75 1.75 17.9371 1.75 12C1.75 11.5858 2.08579 11.25 2.5 11.25C2.91421 11.25 3.25 11.5858 3.25 12C3.25 17.1086 7.39137 21.25 12.5 21.25C17.6086 21.25 21.75 17.1086 21.75 12C21.75 6.89137 17.6086 2.75 12.5 2.75C12.0858 2.75 11.75 2.41421 11.75 2ZM12.5 8.25C12.9142 8.25 13.25 8.58579 13.25 9V12.25H16.5C16.9142 12.25 17.25 12.5858 17.25 13C17.25 13.4142 16.9142 13.75 16.5 13.75H12.5C12.0858 13.75 11.75 13.4142 11.75 13V9C11.75 8.58579 12.0858 8.25 12.5 8.25Z" fill="#1F2237"/>
<path fill-rule="evenodd" clip-rule="evenodd" d="M9.59958 2.39754C9.74874 2.78396 9.55641 3.21814 9.16999 3.36731C9.02855 3.42191 8.88879 3.47988 8.7508 3.54114C8.37221 3.70921 7.92906 3.53856 7.761 3.15997C7.59293 2.78139 7.76358 2.33824 8.14217 2.17017C8.30267 2.09892 8.46526 2.03147 8.6298 1.96795C9.01623 1.81878 9.45041 2.01112 9.59958 2.39754ZM6.1477 4.24026C6.43337 4.54021 6.42178 5.01495 6.12183 5.30061C6.01216 5.40506 5.90505 5.51216 5.80061 5.62183C5.51495 5.92178 5.04021 5.93337 4.74026 5.6477C4.44031 5.36204 4.42873 4.88731 4.71439 4.58736C4.83566 4.46003 4.96002 4.33566 5.08736 4.21439C5.38731 3.92873 5.86204 3.94031 6.1477 4.24026ZM3.65997 7.261C4.03856 7.42907 4.20921 7.87222 4.04114 8.2508C3.97988 8.38879 3.92191 8.52855 3.86731 8.66999C3.71814 9.05641 3.28396 9.24874 2.89754 9.09958C2.51112 8.95041 2.31878 8.51623 2.46795 8.12981C2.53147 7.96526 2.59892 7.80267 2.67017 7.64217C2.83824 7.26358 3.28139 7.09293 3.65997 7.261Z" fill="#1F2237"/>
</svg>
