<svg width="25" height="24" viewBox="0 0 25 24" fill="none" xmlns="http://www.w3.org/2000/svg">
<path fill-rule="evenodd" clip-rule="evenodd" d="M12.5001 1.25C9.87678 1.25 7.75013 3.37665 7.75013 6C7.75013 8.62335 9.87678 10.75 12.5001 10.75C15.1235 10.75 17.2501 8.62335 17.2501 6C17.2501 3.37665 15.1235 1.25 12.5001 1.25ZM9.25013 6C9.25013 4.20507 10.7052 2.75 12.5001 2.75C14.2951 2.75 15.7501 4.20507 15.7501 6C15.7501 7.79493 14.2951 9.25 12.5001 9.25C10.7052 9.25 9.25013 7.79493 9.25013 6Z" fill="#1F2237"/>
<path fill-rule="evenodd" clip-rule="evenodd" d="M12.5001 12.25C10.1866 12.25 8.05506 12.7759 6.47558 13.6643C4.91962 14.5396 3.75013 15.8661 3.75013 17.5L3.75007 17.602C3.74894 18.7638 3.74752 20.222 5.02655 21.2635C5.65602 21.7761 6.53661 22.1406 7.72634 22.3815C8.9194 22.6229 10.4744 22.75 12.5001 22.75C14.5259 22.75 16.0809 22.6229 17.2739 22.3815C18.4637 22.1406 19.3443 21.7761 19.9737 21.2635C21.2527 20.222 21.2513 18.7638 21.2502 17.602L21.2501 17.5C21.2501 15.8661 20.0807 14.5396 18.5247 13.6643C16.9452 12.7759 14.8137 12.25 12.5001 12.25ZM5.25013 17.5C5.25013 16.6487 5.87151 15.7251 7.21098 14.9717C8.52693 14.2315 10.3954 13.75 12.5001 13.75C14.6049 13.75 16.4733 14.2315 17.7893 14.9717C19.1288 15.7251 19.7501 16.6487 19.7501 17.5C19.7501 18.8078 19.7098 19.544 19.0265 20.1004C18.656 20.4022 18.0366 20.6967 16.9763 20.9113C15.9194 21.1252 14.4744 21.25 12.5001 21.25C10.5259 21.25 9.08087 21.1252 8.02393 20.9113C6.96366 20.6967 6.34425 20.4022 5.97372 20.1004C5.29045 19.544 5.25013 18.8078 5.25013 17.5Z" fill="#1F2237"/>
</svg>
