<svg width="56" height="56" viewBox="0 0 56 56" fill="none" xmlns="http://www.w3.org/2000/svg">
<rect x="0.5" y="0.5" width="55" height="55" rx="27.5" stroke="#9CA3AF"/>
<path fill-rule="evenodd" clip-rule="evenodd" d="M25.9436 19.25H30.0564C31.8942 19.25 33.3498 19.25 34.489 19.4031C35.6614 19.5608 36.6104 19.8929 37.3588 20.6412C38.1071 21.3896 38.4392 22.3386 38.5969 23.511C38.75 24.6502 38.75 26.1058 38.75 27.9436V28.0564C38.75 29.8942 38.75 31.3498 38.5969 32.489C38.4392 33.6614 38.1071 34.6104 37.3588 35.3588C36.6104 36.1071 35.6614 36.4392 34.489 36.5969C33.3498 36.75 31.8942 36.75 30.0564 36.75H25.9436C24.1058 36.75 22.6502 36.75 21.511 36.5969C20.3386 36.4392 19.3896 36.1071 18.6412 35.3588C17.8929 34.6104 17.5608 33.6614 17.4031 32.489C17.25 31.3498 17.25 29.8942 17.25 28.0564V27.9436C17.25 26.1058 17.25 24.6502 17.4031 23.511C17.5608 22.3386 17.8929 21.3896 18.6412 20.6412C19.3896 19.8929 20.3386 19.5608 21.511 19.4031C22.6502 19.25 24.1058 19.25 25.9436 19.25ZM21.7108 20.8898C20.7048 21.025 20.1251 21.2787 19.7019 21.7019C19.2787 22.1251 19.025 22.7048 18.8898 23.7108C18.7516 24.7385 18.75 26.0932 18.75 28C18.75 29.9068 18.7516 31.2615 18.8898 32.2892C19.025 33.2952 19.2787 33.8749 19.7019 34.2981C20.1251 34.7213 20.7048 34.975 21.7108 35.1102C22.7385 35.2484 24.0932 35.25 26 35.25H30C31.9068 35.25 33.2615 35.2484 34.2892 35.1102C35.2952 34.975 35.8749 34.7213 36.2981 34.2981C36.7213 33.8749 36.975 33.2952 37.1102 32.2892C37.2484 31.2615 37.25 29.9068 37.25 28C37.25 26.0932 37.2484 24.7385 37.1102 23.7108C36.975 22.7048 36.7213 22.1251 36.2981 21.7019C35.8749 21.2787 35.2952 21.025 34.2892 20.8898C33.2615 20.7516 31.9068 20.75 30 20.75H26C24.0932 20.75 22.7385 20.7516 21.7108 20.8898ZM21.4238 23.5199C21.689 23.2017 22.1619 23.1587 22.4801 23.4238L24.639 25.2229C25.572 26.0004 26.2197 26.5384 26.7666 26.8901C27.2959 27.2306 27.6549 27.3449 28 27.3449C28.3451 27.3449 28.7041 27.2306 29.2334 26.8901C29.7803 26.5384 30.428 26.0004 31.361 25.2229L33.5199 23.4238C33.8381 23.1587 34.311 23.2017 34.5762 23.5199C34.8413 23.8381 34.7983 24.311 34.4801 24.5762L32.2836 26.4066C31.3973 27.1452 30.6789 27.7439 30.0448 28.1517C29.3843 28.5765 28.7411 28.8449 28 28.8449C27.2589 28.8449 26.6157 28.5765 25.9552 28.1517C25.3211 27.7439 24.6027 27.1452 23.7164 26.4066L21.5199 24.5762C21.2017 24.311 21.1587 23.8381 21.4238 23.5199Z" fill="#373A51"/>
</svg>
