<svg width="197" height="335" viewBox="0 0 197 335" fill="none" xmlns="http://www.w3.org/2000/svg">
<g style="mix-blend-mode:plus-lighter" opacity="0.2">
<path fill-rule="evenodd" clip-rule="evenodd" d="M82.4375 239.472L-0.000556946 239.472L-0.000549739 157.034L8.8321 157.034C49.4832 157.034 82.4375 189.988 82.4375 230.639L82.4375 239.472Z" fill="#A3A3A3" fill-opacity="0.2"/>
<path fill-rule="evenodd" clip-rule="evenodd" d="M90.4805 239.473L172.919 239.473L172.919 157.035L164.086 157.035C123.435 157.035 90.4805 189.989 90.4805 230.64L90.4805 239.473Z" fill="#A3A3A3" fill-opacity="0.2"/>
<path fill-rule="evenodd" clip-rule="evenodd" d="M184.98 157.032L266.413 157.032L266.413 239.471L257.688 239.471C217.533 239.471 184.98 206.516 184.98 165.865L184.98 157.032Z" fill="#A3A3A3" fill-opacity="0.2"/>
<path fill-rule="evenodd" clip-rule="evenodd" d="M185.986 252.541L268.424 252.541L268.424 334.979L259.592 334.979C218.941 334.979 185.986 302.025 185.986 261.374L185.986 252.541Z" fill="#A3A3A3" fill-opacity="0.2"/>
<path fill-rule="evenodd" clip-rule="evenodd" d="M92.4902 252.541L173.923 252.541L173.923 334.979L165.198 334.979C125.043 334.979 92.4902 302.025 92.4902 261.373L92.4902 252.541Z" fill="#A3A3A3" fill-opacity="0.2"/>
<path d="M2.49902 252.541L2.49902 254.602L2.06055 254.602L2.06055 255.041L-0.000976781 255.041L-0.000977103 258.724L2.49902 258.724L2.49902 262.846L-0.000977463 262.846L-0.000977824 266.968L2.49902 266.968L2.49902 271.09L-0.000978184 271.09L-0.000978544 275.212L2.49902 275.212L2.49902 279.333L-0.000978905 279.333L-0.000979265 283.455L2.49902 283.455L2.49902 287.577L-0.000979625 287.577L-0.000979986 291.699L2.49902 291.699L2.49902 295.821L-0.000980346 295.821L-0.000980707 299.943L2.49902 299.943L2.49902 304.064L-0.000981067 304.064L-0.000981427 308.187L2.49902 308.187L2.49902 312.309L-0.000981788 312.309L-0.000982148 316.431L2.49902 316.431L2.49902 320.553L-0.000982508 320.553L-0.000982869 324.674L2.49902 324.674L2.49902 328.796L-0.000983229 328.796L-0.000983551 332.479L2.208 332.479L2.208 332.918L2.49902 332.918L2.49902 334.979L6.62402 334.979L6.62402 332.479L8.83202 332.479C9.50126 332.479 10.1683 332.47 10.833 332.451L10.9023 334.949C12.2863 334.911 13.6606 334.834 15.0244 334.721L14.8164 332.23C16.1486 332.12 17.4703 331.972 18.7803 331.789L19.1269 334.264C20.4962 334.072 21.8532 333.842 23.1973 333.576L22.7119 331.126C24.0211 330.867 25.3175 330.572 26.5996 330.242L27.2217 332.663L27.2226 332.663C28.5609 332.319 29.8838 331.936 31.1914 331.52L30.4326 329.14C31.7032 328.735 32.9587 328.295 34.1973 327.822L35.0898 330.156C36.3792 329.664 37.6509 329.136 38.9043 328.574L37.8818 326.294C39.0974 325.749 40.2953 325.172 41.4736 324.562L42.623 326.78C43.8473 326.147 45.0515 325.48 46.2344 324.78L44.9619 322.629C46.108 321.951 47.2342 321.243 48.3379 320.504L49.7285 322.58C50.8735 321.814 51.9954 321.015 53.0937 320.187L51.5889 318.192C52.6517 317.391 53.6917 316.561 54.707 315.703L56.3213 317.611C57.3727 316.723 58.3988 315.805 59.3984 314.859L57.6807 313.044C58.647 312.13 59.588 311.189 60.5019 310.223L62.3184 311.939C63.2641 310.939 64.1833 309.914 65.0723 308.862L63.1621 307.248C64.0202 306.233 64.8504 305.193 65.6514 304.131L67.6465 305.635C68.4746 304.536 69.2733 303.414 70.04 302.269L67.9619 300.879C68.7008 299.775 69.4104 298.65 70.0879 297.504L72.2393 298.776L72.2402 298.776C72.9397 297.593 73.6053 296.388 74.2393 295.163L72.0195 294.015C72.6296 292.836 73.2081 291.639 73.7529 290.423L76.0342 291.444C76.5959 290.191 77.1238 288.919 77.6162 287.63L75.2803 286.739C75.7534 285.501 76.193 284.245 76.5977 282.975L78.9785 283.732C79.395 282.425 79.7779 281.102 80.1221 279.764L77.7002 279.141C78.0299 277.859 78.325 276.563 78.584 275.254L81.0352 275.737C81.301 274.393 81.532 273.036 81.7236 271.667L79.2471 271.322C79.4304 270.012 79.5785 268.69 79.6895 267.358L82.1797 267.564C82.2933 266.201 82.37 264.826 82.4082 263.442L79.9102 263.375C79.9193 263.043 79.9261 262.709 79.9307 262.376L79.9375 261.374L79.9375 259.165L82.4375 259.165L82.4375 255.041L80.377 255.041L80.377 254.749L79.9375 254.749L79.9375 252.541L76.2549 252.541L76.2549 255.041L72.1328 255.041L72.1328 252.541L68.0107 252.541L68.0107 255.041L63.8887 255.041L63.8887 252.541L59.7666 252.541L59.7666 255.041L55.6455 255.041L55.6455 252.541L51.5234 252.541L51.5234 255.041L47.4014 255.041L47.4014 252.541L43.2793 252.541L43.2793 255.041L39.1572 255.041L39.1572 252.541L35.0352 252.541L35.0352 255.041L30.9141 255.041L30.9141 252.541L26.792 252.541L26.792 255.041L22.6699 255.041L22.6699 252.541L18.5479 252.541L18.5479 255.041L14.4258 255.041L14.4258 252.541L10.3047 252.541L10.3047 255.041L6.18262 255.041L6.18262 252.541L2.49902 252.541Z" stroke="#A3A3A3" stroke-opacity="0.3" stroke-width="5" stroke-dasharray="4 4"/>
<path d="M187.483 45.4394L187.483 43.3789L187.045 43.3789L187.045 42.9394L184.983 42.9394L184.983 39.2568L187.483 39.2568L187.483 35.1348L184.983 35.1348L184.983 31.0127L187.483 31.0127L187.483 26.8906L184.983 26.8906L184.983 22.7685L187.483 22.7685L187.483 18.6475L184.983 18.6475L184.983 14.5254L187.483 14.5254L187.483 10.4033L184.983 10.4033L184.983 6.28124L187.483 6.28124L187.483 2.15917L184.983 2.15917L184.983 -1.9629L187.483 -1.9629L187.483 -6.08399L184.983 -6.08399L184.983 -10.2061L187.483 -10.2061L187.483 -14.3281L184.983 -14.3281L184.983 -18.4502L187.483 -18.4502L187.483 -22.5723L184.983 -22.5723L184.983 -26.6934L187.483 -26.6934L187.483 -30.8154L184.983 -30.8154L184.983 -34.499L187.192 -34.499L187.192 -34.9375L187.483 -34.9375L187.483 -36.999L191.608 -36.999L191.608 -34.499L193.816 -34.499C194.486 -34.499 195.153 -34.4891 195.817 -34.4707L195.887 -36.9688C197.271 -36.9305 198.645 -36.8538 200.009 -36.7402L199.801 -34.25C201.133 -34.139 202.455 -33.9919 203.765 -33.8086L204.111 -36.2832C205.481 -36.0916 206.838 -35.8616 208.182 -35.5957L207.696 -33.1455C209.005 -32.8865 210.302 -32.5915 211.584 -32.2617L212.206 -34.6826L212.207 -34.6826C213.545 -34.3384 214.868 -33.9555 216.176 -33.5391L215.417 -31.1592C216.688 -30.7545 217.943 -30.3149 219.182 -29.8418L220.074 -32.1758C221.364 -31.6833 222.635 -31.1555 223.889 -30.5938L222.866 -28.3135C224.082 -27.7687 225.28 -27.1911 226.458 -26.5811L227.607 -28.7998C228.832 -28.1661 230.036 -27.4991 231.219 -26.7998L229.946 -24.6484C231.092 -23.9709 232.219 -23.2623 233.322 -22.5234L234.713 -24.5996C235.858 -23.8331 236.98 -23.0349 238.078 -22.207L236.573 -20.2119C237.636 -19.4108 238.676 -18.5809 239.691 -17.7227L241.306 -19.6309C242.357 -18.7421 243.383 -17.8243 244.383 -16.8789L242.665 -15.0635C243.631 -14.1496 244.572 -13.2085 245.486 -12.2422L247.303 -13.959C248.248 -12.959 249.168 -11.9336 250.057 -10.8818L248.146 -9.26758C249.005 -8.25244 249.835 -7.21303 250.636 -6.15039L252.631 -7.6543C253.459 -6.5556 254.258 -5.43345 255.024 -4.28809L252.946 -2.89844C253.685 -1.79476 254.395 -0.669525 255.072 0.476561L257.224 -0.795899L257.225 -0.795899C257.924 0.387352 258.59 1.59278 259.224 2.81738L257.004 3.96582C257.614 5.14426 258.192 6.34193 258.737 7.55762L261.019 6.53613C261.58 7.78948 262.108 9.06127 262.601 10.3506L260.265 11.2412C260.738 12.4798 261.177 13.7352 261.582 15.0059L263.963 14.248C264.379 15.5557 264.762 16.8786 265.106 18.2168L262.685 18.8398C263.014 20.1218 263.309 21.4176 263.568 22.7266L266.02 22.2432C266.285 23.5872 266.516 24.9442 266.708 26.3135L264.231 26.6582C264.415 27.9681 264.563 29.29 264.674 30.6221L267.164 30.416C267.278 31.7798 267.354 33.1542 267.393 34.5381L264.895 34.6055C264.904 34.9378 264.91 35.271 264.915 35.6045L264.922 36.6064L264.922 38.8154L267.422 38.8154L267.422 42.9395L265.361 42.9395L265.361 43.2314L264.922 43.2314L264.922 45.4395L261.239 45.4395L261.239 42.9395L257.117 42.9395L257.117 45.4395L252.995 45.4395L252.995 42.9395L248.873 42.9395L248.873 45.4395L244.751 45.4395L244.751 42.9395L240.63 42.9395L240.63 45.4395L236.508 45.4395L236.508 42.9395L232.386 42.9395L232.386 45.4395L228.264 45.4394L228.264 42.9394L224.142 42.9394L224.142 45.4394L220.02 45.4394L220.02 42.9394L215.898 42.9394L215.898 45.4394L211.776 45.4394L211.776 42.9394L207.654 42.9394L207.654 45.4394L203.532 45.4394L203.532 42.9394L199.41 42.9394L199.41 45.4394L195.289 45.4394L195.289 42.9394L191.167 42.9394L191.167 45.4394L187.483 45.4394Z" stroke="#A3A3A3" stroke-opacity="0.3" stroke-width="5" stroke-dasharray="4 4"/>
<path d="M81.9502 -36.9999L81.9502 -34.9393L82.3887 -34.9393L82.3887 -34.4999L84.4502 -34.4999L84.4502 -30.8173L81.9502 -30.8173L81.9502 -26.6952L84.4502 -26.6952L84.4502 -22.5731L81.9502 -22.5731L81.9502 -18.451L84.4502 -18.451L84.4502 -14.329L81.9502 -14.329L81.9502 -10.2079L84.4502 -10.2079L84.4502 -6.08581L81.9502 -6.08581L81.9502 -1.96374L84.4502 -1.96374L84.4502 2.15833L81.9502 2.15833L81.9502 6.2804L84.4502 6.2804L84.4502 10.4025L81.9502 10.4025L81.9502 14.5236L84.4502 14.5236L84.4502 18.6456L81.9502 18.6456L81.9502 22.7677L84.4502 22.7677L84.4502 26.8898L81.9502 26.8898L81.9502 31.0118L84.4502 31.0118L84.4502 35.1329L81.9502 35.1329L81.9502 39.255L84.4502 39.255L84.4502 42.9386L82.2412 42.9386L82.2412 43.3771L81.9502 43.3771L81.9502 45.4386L77.8252 45.4386L77.8252 42.9386L75.6172 42.9386C74.9479 42.9386 74.2809 42.9286 73.6162 42.9103L73.5469 45.4083C72.1629 45.3701 70.7886 45.2934 69.4248 45.1798L69.6328 42.6896C68.3007 42.5786 66.9789 42.4315 65.6689 42.2482L65.3223 44.7228C63.953 44.5311 62.596 44.3012 61.2519 44.0353L61.7373 41.5851C60.4282 41.3261 59.1317 41.0311 57.8496 40.7013L57.2275 43.1222L57.2266 43.1222C55.8883 42.778 54.5654 42.3951 53.2578 41.9786L54.0166 39.5988C52.746 39.1941 51.4905 38.7544 50.2519 38.2814L49.3594 40.6154C48.0701 40.1229 46.7983 39.5951 45.5449 39.0333L46.5674 36.7531C45.3518 36.2083 44.1539 35.6306 42.9756 35.0206L41.8262 37.2394C40.6019 36.6056 39.3977 35.9387 38.2148 35.2394L39.4873 33.088C38.3412 32.4105 37.215 31.7019 36.1113 30.963L34.7207 33.0392C33.5757 32.2726 32.4538 31.4745 31.3555 30.6466L32.8603 28.6515C31.7975 27.8504 30.7575 27.0204 29.7422 26.1622L28.1279 28.0704C27.0765 27.1817 26.0504 26.2639 25.0508 25.3185L26.7685 23.5031C25.8022 22.5891 24.8612 21.6481 23.9473 20.6818L22.1309 22.3986C21.1851 21.3986 20.2659 20.3732 19.3769 19.3214L21.2871 17.7072C20.4291 16.692 19.5988 15.6526 18.7978 14.59L16.8027 16.0939C15.9746 14.9952 15.1759 13.873 14.4092 12.7277L16.4873 11.338C15.7484 10.2343 15.0388 9.1091 14.3613 7.96301L12.21 9.23547L12.209 9.23547C11.5095 8.05222 10.8439 6.84679 10.21 5.62219L12.4297 4.47376C11.8197 3.29531 11.2411 2.09764 10.6963 0.881959L8.41504 1.90344C7.85335 0.650099 7.32545 -0.621695 6.833 -1.91101L9.16894 -2.80164C8.69584 -4.04024 8.25625 -5.29558 7.85156 -6.56628L5.4707 -5.80847C5.05426 -7.11611 4.67135 -8.439 4.32715 -9.77722L6.74902 -10.4003C6.4193 -11.6822 6.12419 -12.9781 5.86523 -14.287L3.41406 -13.8036C3.14818 -15.1477 2.9172 -16.5046 2.72558 -17.8739L5.20215 -18.2186C5.01883 -19.5285 4.87072 -20.8504 4.75976 -22.1825L2.26953 -21.9764C2.15595 -23.3403 2.07921 -24.7146 2.04101 -26.0985L4.53906 -26.1659C4.52989 -26.4982 4.52316 -26.8315 4.51855 -27.1649L4.51172 -28.1669L4.51172 -30.3759L2.01172 -30.3759L2.01172 -34.4999L4.07227 -34.4999L4.07227 -34.7919L4.51172 -34.7919L4.51172 -36.9999L8.19434 -36.9999L8.19434 -34.4999L12.3164 -34.4999L12.3164 -36.9999L16.4385 -36.9999L16.4385 -34.4999L20.5605 -34.4999L20.5605 -36.9999L24.6826 -36.9999L24.6826 -34.4999L28.8037 -34.4999L28.8037 -36.9999L32.9258 -36.9999L32.9258 -34.4999L37.0479 -34.4999L37.0479 -36.9999L41.1699 -36.9999L41.1699 -34.4999L45.292 -34.4999L45.292 -36.9999L49.4141 -36.9999L49.4141 -34.4999L53.5352 -34.4999L53.5352 -36.9999L57.6572 -36.9999L57.6572 -34.4999L61.7793 -34.4999L61.7793 -36.9999L65.9014 -36.9999L65.9014 -34.4999L70.0234 -34.4999L70.0234 -36.9999L74.1445 -36.9999L74.1445 -34.4999L78.2666 -34.4999L78.2666 -36.9999L81.9502 -36.9999Z" stroke="#A3A3A3" stroke-opacity="0.3" stroke-width="5" stroke-dasharray="4 4"/>
<path fill-rule="evenodd" clip-rule="evenodd" d="M175.934 -36.9993L94.5009 -36.9993L94.5009 45.4388L103.226 45.4388C143.381 45.4388 175.934 12.4845 175.934 -28.1666L175.934 -36.9993Z" fill="#A3A3A3" fill-opacity="0.2"/>
<path fill-rule="evenodd" clip-rule="evenodd" d="M175.934 140.948L94.5009 140.948L94.5009 58.5102L103.226 58.5102C143.381 58.5102 175.934 91.4645 175.934 132.116L175.934 140.948Z" fill="#A3A3A3" fill-opacity="0.2"/>
<path fill-rule="evenodd" clip-rule="evenodd" d="M4.02344 58.509L85.4562 58.509L85.4561 140.947L76.7312 140.947C36.5758 140.947 4.02343 107.993 4.02344 67.3417L4.02344 58.509Z" fill="#A3A3A3" fill-opacity="0.2"/>
<path fill-rule="evenodd" clip-rule="evenodd" d="M267.422 58.5085L184.984 58.5085L184.984 140.947L193.816 140.947C234.468 140.947 267.422 107.992 267.422 67.3412L267.422 58.5085Z" fill="#A3A3A3" fill-opacity="0.2"/>
</g>
</svg>
